<?xml version="1.0" encoding="utf-8" standalone="no"?>
<!DOCTYPE svg PUBLIC "-//W3C//DTD SVG 1.1//EN"
  "http://www.w3.org/Graphics/SVG/1.1/DTD/svg11.dtd">
<!-- Created with matplotlib (https://matplotlib.org/) -->
<svg height="615.6pt" version="1.1" viewBox="0 0 1152 615.6" width="1152pt" xmlns="http://www.w3.org/2000/svg" xmlns:xlink="http://www.w3.org/1999/xlink">
 <metadata>
  <rdf:RDF xmlns:cc="http://creativecommons.org/ns#" xmlns:dc="http://purl.org/dc/elements/1.1/" xmlns:rdf="http://www.w3.org/1999/02/22-rdf-syntax-ns#">
   <cc:Work>
    <dc:type rdf:resource="http://purl.org/dc/dcmitype/StillImage"/>
    <dc:date>2021-06-02T09:30:23.096884</dc:date>
    <dc:format>image/svg+xml</dc:format>
    <dc:creator>
     <cc:Agent>
      <dc:title>Matplotlib v3.3.2, https://matplotlib.org/</dc:title>
     </cc:Agent>
    </dc:creator>
   </cc:Work>
  </rdf:RDF>
 </metadata>
 <defs>
  <style type="text/css">*{stroke-linecap:butt;stroke-linejoin:round;}</style>
 </defs>
 <g id="figure_1">
  <g id="patch_1">
   <path d="M 0 615.6 
L 1152 615.6 
L 1152 0 
L 0 0 
z
" style="fill:#ffffff;"/>
  </g>
  <g id="axes_1">
   <g id="patch_2">
    <path d="M 33.70004 585.995598 
L 567.412492 585.995598 
L 567.412492 11.5425 
L 33.70004 11.5425 
z
" style="fill:#ffffff;"/>
   </g>
   <g id="matplotlib.axis_1">
    <g id="xtick_1">
     <g id="line2d_1">
      <path clip-path="url(#pa3116e6457)" d="M 57.959697 585.995598 
L 57.959697 11.5425 
" style="fill:none;stroke:#b0b0b0;stroke-linecap:square;stroke-width:0.8;"/>
     </g>
     <g id="line2d_2">
      <defs>
       <path d="M 0 0 
L 0 3.5 
" id="m9f8d7bedde" style="stroke:#000000;stroke-width:0.8;"/>
      </defs>
      <g>
       <use style="stroke:#000000;stroke-width:0.8;" x="57.959697" xlink:href="#m9f8d7bedde" y="585.995598"/>
      </g>
     </g>
     <g id="text_1">
      <!-- 0 -->
      <g transform="translate(54.778447 600.594036)scale(0.1 -0.1)">
       <defs>
        <path d="M 31.78125 66.40625 
Q 24.171875 66.40625 20.328125 58.90625 
Q 16.5 51.421875 16.5 36.375 
Q 16.5 21.390625 20.328125 13.890625 
Q 24.171875 6.390625 31.78125 6.390625 
Q 39.453125 6.390625 43.28125 13.890625 
Q 47.125 21.390625 47.125 36.375 
Q 47.125 51.421875 43.28125 58.90625 
Q 39.453125 66.40625 31.78125 66.40625 
z
M 31.78125 74.21875 
Q 44.046875 74.21875 50.515625 64.515625 
Q 56.984375 54.828125 56.984375 36.375 
Q 56.984375 17.96875 50.515625 8.265625 
Q 44.046875 -1.421875 31.78125 -1.421875 
Q 19.53125 -1.421875 13.0625 8.265625 
Q 6.59375 17.96875 6.59375 36.375 
Q 6.59375 54.828125 13.0625 64.515625 
Q 19.53125 74.21875 31.78125 74.21875 
z
" id="DejaVuSans-48"/>
       </defs>
       <use xlink:href="#DejaVuSans-48"/>
      </g>
     </g>
    </g>
    <g id="xtick_2">
     <g id="line2d_3">
      <path clip-path="url(#pa3116e6457)" d="M 127.273003 585.995598 
L 127.273003 11.5425 
" style="fill:none;stroke:#b0b0b0;stroke-linecap:square;stroke-width:0.8;"/>
     </g>
     <g id="line2d_4">
      <g>
       <use style="stroke:#000000;stroke-width:0.8;" x="127.273003" xlink:href="#m9f8d7bedde" y="585.995598"/>
      </g>
     </g>
     <g id="text_2">
      <!-- 5 -->
      <g transform="translate(124.091753 600.594036)scale(0.1 -0.1)">
       <defs>
        <path d="M 10.796875 72.90625 
L 49.515625 72.90625 
L 49.515625 64.59375 
L 19.828125 64.59375 
L 19.828125 46.734375 
Q 21.96875 47.46875 24.109375 47.828125 
Q 26.265625 48.1875 28.421875 48.1875 
Q 40.625 48.1875 47.75 41.5 
Q 54.890625 34.8125 54.890625 23.390625 
Q 54.890625 11.625 47.5625 5.09375 
Q 40.234375 -1.421875 26.90625 -1.421875 
Q 22.3125 -1.421875 17.546875 -0.640625 
Q 12.796875 0.140625 7.71875 1.703125 
L 7.71875 11.625 
Q 12.109375 9.234375 16.796875 8.0625 
Q 21.484375 6.890625 26.703125 6.890625 
Q 35.15625 6.890625 40.078125 11.328125 
Q 45.015625 15.765625 45.015625 23.390625 
Q 45.015625 31 40.078125 35.4375 
Q 35.15625 39.890625 26.703125 39.890625 
Q 22.75 39.890625 18.8125 39.015625 
Q 14.890625 38.140625 10.796875 36.28125 
z
" id="DejaVuSans-53"/>
       </defs>
       <use xlink:href="#DejaVuSans-53"/>
      </g>
     </g>
    </g>
    <g id="xtick_3">
     <g id="line2d_5">
      <path clip-path="url(#pa3116e6457)" d="M 196.586308 585.995598 
L 196.586308 11.5425 
" style="fill:none;stroke:#b0b0b0;stroke-linecap:square;stroke-width:0.8;"/>
     </g>
     <g id="line2d_6">
      <g>
       <use style="stroke:#000000;stroke-width:0.8;" x="196.586308" xlink:href="#m9f8d7bedde" y="585.995598"/>
      </g>
     </g>
     <g id="text_3">
      <!-- 10 -->
      <g transform="translate(190.223808 600.594036)scale(0.1 -0.1)">
       <defs>
        <path d="M 12.40625 8.296875 
L 28.515625 8.296875 
L 28.515625 63.921875 
L 10.984375 60.40625 
L 10.984375 69.390625 
L 28.421875 72.90625 
L 38.28125 72.90625 
L 38.28125 8.296875 
L 54.390625 8.296875 
L 54.390625 0 
L 12.40625 0 
z
" id="DejaVuSans-49"/>
       </defs>
       <use xlink:href="#DejaVuSans-49"/>
       <use x="63.623047" xlink:href="#DejaVuSans-48"/>
      </g>
     </g>
    </g>
    <g id="xtick_4">
     <g id="line2d_7">
      <path clip-path="url(#pa3116e6457)" d="M 265.899613 585.995598 
L 265.899613 11.5425 
" style="fill:none;stroke:#b0b0b0;stroke-linecap:square;stroke-width:0.8;"/>
     </g>
     <g id="line2d_8">
      <g>
       <use style="stroke:#000000;stroke-width:0.8;" x="265.899613" xlink:href="#m9f8d7bedde" y="585.995598"/>
      </g>
     </g>
     <g id="text_4">
      <!-- 15 -->
      <g transform="translate(259.537113 600.594036)scale(0.1 -0.1)">
       <use xlink:href="#DejaVuSans-49"/>
       <use x="63.623047" xlink:href="#DejaVuSans-53"/>
      </g>
     </g>
    </g>
    <g id="xtick_5">
     <g id="line2d_9">
      <path clip-path="url(#pa3116e6457)" d="M 335.212919 585.995598 
L 335.212919 11.5425 
" style="fill:none;stroke:#b0b0b0;stroke-linecap:square;stroke-width:0.8;"/>
     </g>
     <g id="line2d_10">
      <g>
       <use style="stroke:#000000;stroke-width:0.8;" x="335.212919" xlink:href="#m9f8d7bedde" y="585.995598"/>
      </g>
     </g>
     <g id="text_5">
      <!-- 20 -->
      <g transform="translate(328.850419 600.594036)scale(0.1 -0.1)">
       <defs>
        <path d="M 19.1875 8.296875 
L 53.609375 8.296875 
L 53.609375 0 
L 7.328125 0 
L 7.328125 8.296875 
Q 12.9375 14.109375 22.625 23.890625 
Q 32.328125 33.6875 34.8125 36.53125 
Q 39.546875 41.84375 41.421875 45.53125 
Q 43.3125 49.21875 43.3125 52.78125 
Q 43.3125 58.59375 39.234375 62.25 
Q 35.15625 65.921875 28.609375 65.921875 
Q 23.96875 65.921875 18.8125 64.3125 
Q 13.671875 62.703125 7.8125 59.421875 
L 7.8125 69.390625 
Q 13.765625 71.78125 18.9375 73 
Q 24.125 74.21875 28.421875 74.21875 
Q 39.75 74.21875 46.484375 68.546875 
Q 53.21875 62.890625 53.21875 53.421875 
Q 53.21875 48.921875 51.53125 44.890625 
Q 49.859375 40.875 45.40625 35.40625 
Q 44.1875 33.984375 37.640625 27.21875 
Q 31.109375 20.453125 19.1875 8.296875 
z
" id="DejaVuSans-50"/>
       </defs>
       <use xlink:href="#DejaVuSans-50"/>
       <use x="63.623047" xlink:href="#DejaVuSans-48"/>
      </g>
     </g>
    </g>
    <g id="xtick_6">
     <g id="line2d_11">
      <path clip-path="url(#pa3116e6457)" d="M 404.526224 585.995598 
L 404.526224 11.5425 
" style="fill:none;stroke:#b0b0b0;stroke-linecap:square;stroke-width:0.8;"/>
     </g>
     <g id="line2d_12">
      <g>
       <use style="stroke:#000000;stroke-width:0.8;" x="404.526224" xlink:href="#m9f8d7bedde" y="585.995598"/>
      </g>
     </g>
     <g id="text_6">
      <!-- 25 -->
      <g transform="translate(398.163724 600.594036)scale(0.1 -0.1)">
       <use xlink:href="#DejaVuSans-50"/>
       <use x="63.623047" xlink:href="#DejaVuSans-53"/>
      </g>
     </g>
    </g>
    <g id="xtick_7">
     <g id="line2d_13">
      <path clip-path="url(#pa3116e6457)" d="M 473.83953 585.995598 
L 473.83953 11.5425 
" style="fill:none;stroke:#b0b0b0;stroke-linecap:square;stroke-width:0.8;"/>
     </g>
     <g id="line2d_14">
      <g>
       <use style="stroke:#000000;stroke-width:0.8;" x="473.83953" xlink:href="#m9f8d7bedde" y="585.995598"/>
      </g>
     </g>
     <g id="text_7">
      <!-- 30 -->
      <g transform="translate(467.47703 600.594036)scale(0.1 -0.1)">
       <defs>
        <path d="M 40.578125 39.3125 
Q 47.65625 37.796875 51.625 33 
Q 55.609375 28.21875 55.609375 21.1875 
Q 55.609375 10.40625 48.1875 4.484375 
Q 40.765625 -1.421875 27.09375 -1.421875 
Q 22.515625 -1.421875 17.65625 -0.515625 
Q 12.796875 0.390625 7.625 2.203125 
L 7.625 11.71875 
Q 11.71875 9.328125 16.59375 8.109375 
Q 21.484375 6.890625 26.8125 6.890625 
Q 36.078125 6.890625 40.9375 10.546875 
Q 45.796875 14.203125 45.796875 21.1875 
Q 45.796875 27.640625 41.28125 31.265625 
Q 36.765625 34.90625 28.71875 34.90625 
L 20.21875 34.90625 
L 20.21875 43.015625 
L 29.109375 43.015625 
Q 36.375 43.015625 40.234375 45.921875 
Q 44.09375 48.828125 44.09375 54.296875 
Q 44.09375 59.90625 40.109375 62.90625 
Q 36.140625 65.921875 28.71875 65.921875 
Q 24.65625 65.921875 20.015625 65.03125 
Q 15.375 64.15625 9.8125 62.3125 
L 9.8125 71.09375 
Q 15.4375 72.65625 20.34375 73.4375 
Q 25.25 74.21875 29.59375 74.21875 
Q 40.828125 74.21875 47.359375 69.109375 
Q 53.90625 64.015625 53.90625 55.328125 
Q 53.90625 49.265625 50.4375 45.09375 
Q 46.96875 40.921875 40.578125 39.3125 
z
" id="DejaVuSans-51"/>
       </defs>
       <use xlink:href="#DejaVuSans-51"/>
       <use x="63.623047" xlink:href="#DejaVuSans-48"/>
      </g>
     </g>
    </g>
    <g id="xtick_8">
     <g id="line2d_15">
      <path clip-path="url(#pa3116e6457)" d="M 543.152835 585.995598 
L 543.152835 11.5425 
" style="fill:none;stroke:#b0b0b0;stroke-linecap:square;stroke-width:0.8;"/>
     </g>
     <g id="line2d_16">
      <g>
       <use style="stroke:#000000;stroke-width:0.8;" x="543.152835" xlink:href="#m9f8d7bedde" y="585.995598"/>
      </g>
     </g>
     <g id="text_8">
      <!-- 35 -->
      <g transform="translate(536.790335 600.594036)scale(0.1 -0.1)">
       <use xlink:href="#DejaVuSans-51"/>
       <use x="63.623047" xlink:href="#DejaVuSans-53"/>
      </g>
     </g>
    </g>
   </g>
   <g id="matplotlib.axis_2">
    <g id="ytick_1">
     <g id="line2d_17">
      <path clip-path="url(#pa3116e6457)" d="M 33.70004 570.763556 
L 567.412492 570.763556 
" style="fill:none;stroke:#b0b0b0;stroke-linecap:square;stroke-width:0.8;"/>
     </g>
     <g id="line2d_18">
      <defs>
       <path d="M 0 0 
L -3.5 0 
" id="m96585be83d" style="stroke:#000000;stroke-width:0.8;"/>
      </defs>
      <g>
       <use style="stroke:#000000;stroke-width:0.8;" x="33.70004" xlink:href="#m96585be83d" y="570.763556"/>
      </g>
     </g>
     <g id="text_9">
      <!-- 0.1 -->
      <g transform="translate(10.796915 574.562775)scale(0.1 -0.1)">
       <defs>
        <path d="M 10.6875 12.40625 
L 21 12.40625 
L 21 0 
L 10.6875 0 
z
" id="DejaVuSans-46"/>
       </defs>
       <use xlink:href="#DejaVuSans-48"/>
       <use x="63.623047" xlink:href="#DejaVuSans-46"/>
       <use x="95.410156" xlink:href="#DejaVuSans-49"/>
      </g>
     </g>
    </g>
    <g id="ytick_2">
     <g id="line2d_19">
      <path clip-path="url(#pa3116e6457)" d="M 33.70004 503.478609 
L 567.412492 503.478609 
" style="fill:none;stroke:#b0b0b0;stroke-linecap:square;stroke-width:0.8;"/>
     </g>
     <g id="line2d_20">
      <g>
       <use style="stroke:#000000;stroke-width:0.8;" x="33.70004" xlink:href="#m96585be83d" y="503.478609"/>
      </g>
     </g>
     <g id="text_10">
      <!-- 0.2 -->
      <g transform="translate(10.796915 507.277828)scale(0.1 -0.1)">
       <use xlink:href="#DejaVuSans-48"/>
       <use x="63.623047" xlink:href="#DejaVuSans-46"/>
       <use x="95.410156" xlink:href="#DejaVuSans-50"/>
      </g>
     </g>
    </g>
    <g id="ytick_3">
     <g id="line2d_21">
      <path clip-path="url(#pa3116e6457)" d="M 33.70004 436.193662 
L 567.412492 436.193662 
" style="fill:none;stroke:#b0b0b0;stroke-linecap:square;stroke-width:0.8;"/>
     </g>
     <g id="line2d_22">
      <g>
       <use style="stroke:#000000;stroke-width:0.8;" x="33.70004" xlink:href="#m96585be83d" y="436.193662"/>
      </g>
     </g>
     <g id="text_11">
      <!-- 0.3 -->
      <g transform="translate(10.796915 439.99288)scale(0.1 -0.1)">
       <use xlink:href="#DejaVuSans-48"/>
       <use x="63.623047" xlink:href="#DejaVuSans-46"/>
       <use x="95.410156" xlink:href="#DejaVuSans-51"/>
      </g>
     </g>
    </g>
    <g id="ytick_4">
     <g id="line2d_23">
      <path clip-path="url(#pa3116e6457)" d="M 33.70004 368.908714 
L 567.412492 368.908714 
" style="fill:none;stroke:#b0b0b0;stroke-linecap:square;stroke-width:0.8;"/>
     </g>
     <g id="line2d_24">
      <g>
       <use style="stroke:#000000;stroke-width:0.8;" x="33.70004" xlink:href="#m96585be83d" y="368.908714"/>
      </g>
     </g>
     <g id="text_12">
      <!-- 0.4 -->
      <g transform="translate(10.796915 372.707933)scale(0.1 -0.1)">
       <defs>
        <path d="M 37.796875 64.3125 
L 12.890625 25.390625 
L 37.796875 25.390625 
z
M 35.203125 72.90625 
L 47.609375 72.90625 
L 47.609375 25.390625 
L 58.015625 25.390625 
L 58.015625 17.1875 
L 47.609375 17.1875 
L 47.609375 0 
L 37.796875 0 
L 37.796875 17.1875 
L 4.890625 17.1875 
L 4.890625 26.703125 
z
" id="DejaVuSans-52"/>
       </defs>
       <use xlink:href="#DejaVuSans-48"/>
       <use x="63.623047" xlink:href="#DejaVuSans-46"/>
       <use x="95.410156" xlink:href="#DejaVuSans-52"/>
      </g>
     </g>
    </g>
    <g id="ytick_5">
     <g id="line2d_25">
      <path clip-path="url(#pa3116e6457)" d="M 33.70004 301.623767 
L 567.412492 301.623767 
" style="fill:none;stroke:#b0b0b0;stroke-linecap:square;stroke-width:0.8;"/>
     </g>
     <g id="line2d_26">
      <g>
       <use style="stroke:#000000;stroke-width:0.8;" x="33.70004" xlink:href="#m96585be83d" y="301.623767"/>
      </g>
     </g>
     <g id="text_13">
      <!-- 0.5 -->
      <g transform="translate(10.796915 305.422986)scale(0.1 -0.1)">
       <use xlink:href="#DejaVuSans-48"/>
       <use x="63.623047" xlink:href="#DejaVuSans-46"/>
       <use x="95.410156" xlink:href="#DejaVuSans-53"/>
      </g>
     </g>
    </g>
    <g id="ytick_6">
     <g id="line2d_27">
      <path clip-path="url(#pa3116e6457)" d="M 33.70004 234.33882 
L 567.412492 234.33882 
" style="fill:none;stroke:#b0b0b0;stroke-linecap:square;stroke-width:0.8;"/>
     </g>
     <g id="line2d_28">
      <g>
       <use style="stroke:#000000;stroke-width:0.8;" x="33.70004" xlink:href="#m96585be83d" y="234.33882"/>
      </g>
     </g>
     <g id="text_14">
      <!-- 0.6 -->
      <g transform="translate(10.796915 238.138039)scale(0.1 -0.1)">
       <defs>
        <path d="M 33.015625 40.375 
Q 26.375 40.375 22.484375 35.828125 
Q 18.609375 31.296875 18.609375 23.390625 
Q 18.609375 15.53125 22.484375 10.953125 
Q 26.375 6.390625 33.015625 6.390625 
Q 39.65625 6.390625 43.53125 10.953125 
Q 47.40625 15.53125 47.40625 23.390625 
Q 47.40625 31.296875 43.53125 35.828125 
Q 39.65625 40.375 33.015625 40.375 
z
M 52.59375 71.296875 
L 52.59375 62.3125 
Q 48.875 64.0625 45.09375 64.984375 
Q 41.3125 65.921875 37.59375 65.921875 
Q 27.828125 65.921875 22.671875 59.328125 
Q 17.53125 52.734375 16.796875 39.40625 
Q 19.671875 43.65625 24.015625 45.921875 
Q 28.375 48.1875 33.59375 48.1875 
Q 44.578125 48.1875 50.953125 41.515625 
Q 57.328125 34.859375 57.328125 23.390625 
Q 57.328125 12.15625 50.6875 5.359375 
Q 44.046875 -1.421875 33.015625 -1.421875 
Q 20.359375 -1.421875 13.671875 8.265625 
Q 6.984375 17.96875 6.984375 36.375 
Q 6.984375 53.65625 15.1875 63.9375 
Q 23.390625 74.21875 37.203125 74.21875 
Q 40.921875 74.21875 44.703125 73.484375 
Q 48.484375 72.75 52.59375 71.296875 
z
" id="DejaVuSans-54"/>
       </defs>
       <use xlink:href="#DejaVuSans-48"/>
       <use x="63.623047" xlink:href="#DejaVuSans-46"/>
       <use x="95.410156" xlink:href="#DejaVuSans-54"/>
      </g>
     </g>
    </g>
    <g id="ytick_7">
     <g id="line2d_29">
      <path clip-path="url(#pa3116e6457)" d="M 33.70004 167.053873 
L 567.412492 167.053873 
" style="fill:none;stroke:#b0b0b0;stroke-linecap:square;stroke-width:0.8;"/>
     </g>
     <g id="line2d_30">
      <g>
       <use style="stroke:#000000;stroke-width:0.8;" x="33.70004" xlink:href="#m96585be83d" y="167.053873"/>
      </g>
     </g>
     <g id="text_15">
      <!-- 0.7 -->
      <g transform="translate(10.796915 170.853092)scale(0.1 -0.1)">
       <defs>
        <path d="M 8.203125 72.90625 
L 55.078125 72.90625 
L 55.078125 68.703125 
L 28.609375 0 
L 18.3125 0 
L 43.21875 64.59375 
L 8.203125 64.59375 
z
" id="DejaVuSans-55"/>
       </defs>
       <use xlink:href="#DejaVuSans-48"/>
       <use x="63.623047" xlink:href="#DejaVuSans-46"/>
       <use x="95.410156" xlink:href="#DejaVuSans-55"/>
      </g>
     </g>
    </g>
    <g id="ytick_8">
     <g id="line2d_31">
      <path clip-path="url(#pa3116e6457)" d="M 33.70004 99.768926 
L 567.412492 99.768926 
" style="fill:none;stroke:#b0b0b0;stroke-linecap:square;stroke-width:0.8;"/>
     </g>
     <g id="line2d_32">
      <g>
       <use style="stroke:#000000;stroke-width:0.8;" x="33.70004" xlink:href="#m96585be83d" y="99.768926"/>
      </g>
     </g>
     <g id="text_16">
      <!-- 0.8 -->
      <g transform="translate(10.796915 103.568145)scale(0.1 -0.1)">
       <defs>
        <path d="M 31.78125 34.625 
Q 24.75 34.625 20.71875 30.859375 
Q 16.703125 27.09375 16.703125 20.515625 
Q 16.703125 13.921875 20.71875 10.15625 
Q 24.75 6.390625 31.78125 6.390625 
Q 38.8125 6.390625 42.859375 10.171875 
Q 46.921875 13.96875 46.921875 20.515625 
Q 46.921875 27.09375 42.890625 30.859375 
Q 38.875 34.625 31.78125 34.625 
z
M 21.921875 38.8125 
Q 15.578125 40.375 12.03125 44.71875 
Q 8.5 49.078125 8.5 55.328125 
Q 8.5 64.0625 14.71875 69.140625 
Q 20.953125 74.21875 31.78125 74.21875 
Q 42.671875 74.21875 48.875 69.140625 
Q 55.078125 64.0625 55.078125 55.328125 
Q 55.078125 49.078125 51.53125 44.71875 
Q 48 40.375 41.703125 38.8125 
Q 48.828125 37.15625 52.796875 32.3125 
Q 56.78125 27.484375 56.78125 20.515625 
Q 56.78125 9.90625 50.3125 4.234375 
Q 43.84375 -1.421875 31.78125 -1.421875 
Q 19.734375 -1.421875 13.25 4.234375 
Q 6.78125 9.90625 6.78125 20.515625 
Q 6.78125 27.484375 10.78125 32.3125 
Q 14.796875 37.15625 21.921875 38.8125 
z
M 18.3125 54.390625 
Q 18.3125 48.734375 21.84375 45.5625 
Q 25.390625 42.390625 31.78125 42.390625 
Q 38.140625 42.390625 41.71875 45.5625 
Q 45.3125 48.734375 45.3125 54.390625 
Q 45.3125 60.0625 41.71875 63.234375 
Q 38.140625 66.40625 31.78125 66.40625 
Q 25.390625 66.40625 21.84375 63.234375 
Q 18.3125 60.0625 18.3125 54.390625 
z
" id="DejaVuSans-56"/>
       </defs>
       <use xlink:href="#DejaVuSans-48"/>
       <use x="63.623047" xlink:href="#DejaVuSans-46"/>
       <use x="95.410156" xlink:href="#DejaVuSans-56"/>
      </g>
     </g>
    </g>
    <g id="ytick_9">
     <g id="line2d_33">
      <path clip-path="url(#pa3116e6457)" d="M 33.70004 32.483979 
L 567.412492 32.483979 
" style="fill:none;stroke:#b0b0b0;stroke-linecap:square;stroke-width:0.8;"/>
     </g>
     <g id="line2d_34">
      <g>
       <use style="stroke:#000000;stroke-width:0.8;" x="33.70004" xlink:href="#m96585be83d" y="32.483979"/>
      </g>
     </g>
     <g id="text_17">
      <!-- 0.9 -->
      <g transform="translate(10.796915 36.283197)scale(0.1 -0.1)">
       <defs>
        <path d="M 10.984375 1.515625 
L 10.984375 10.5 
Q 14.703125 8.734375 18.5 7.8125 
Q 22.3125 6.890625 25.984375 6.890625 
Q 35.75 6.890625 40.890625 13.453125 
Q 46.046875 20.015625 46.78125 33.40625 
Q 43.953125 29.203125 39.59375 26.953125 
Q 35.25 24.703125 29.984375 24.703125 
Q 19.046875 24.703125 12.671875 31.3125 
Q 6.296875 37.9375 6.296875 49.421875 
Q 6.296875 60.640625 12.9375 67.421875 
Q 19.578125 74.21875 30.609375 74.21875 
Q 43.265625 74.21875 49.921875 64.515625 
Q 56.59375 54.828125 56.59375 36.375 
Q 56.59375 19.140625 48.40625 8.859375 
Q 40.234375 -1.421875 26.421875 -1.421875 
Q 22.703125 -1.421875 18.890625 -0.6875 
Q 15.09375 0.046875 10.984375 1.515625 
z
M 30.609375 32.421875 
Q 37.25 32.421875 41.125 36.953125 
Q 45.015625 41.5 45.015625 49.421875 
Q 45.015625 57.28125 41.125 61.84375 
Q 37.25 66.40625 30.609375 66.40625 
Q 23.96875 66.40625 20.09375 61.84375 
Q 16.21875 57.28125 16.21875 49.421875 
Q 16.21875 41.5 20.09375 36.953125 
Q 23.96875 32.421875 30.609375 32.421875 
z
" id="DejaVuSans-57"/>
       </defs>
       <use xlink:href="#DejaVuSans-48"/>
       <use x="63.623047" xlink:href="#DejaVuSans-46"/>
       <use x="95.410156" xlink:href="#DejaVuSans-57"/>
      </g>
     </g>
    </g>
   </g>
   <g id="line2d_35">
    <path clip-path="url(#pa3116e6457)" d="M 57.959697 210.692803 
L 71.822358 355.065082 
L 85.685019 389.176591 
L 99.547681 413.315642 
L 113.410342 435.097224 
L 127.273003 441.826615 
L 141.135664 431.689787 
L 154.998325 470.384681 
L 168.860986 478.007299 
L 182.723647 407.423362 
L 196.586308 439.684168 
L 210.448969 462.093393 
L 224.31163 469.697292 
L 238.174291 474.214293 
L 252.036952 478.337894 
L 265.899613 485.110829 
L 279.762275 497.691011 
L 293.624936 496.801974 
L 307.487597 395.454881 
L 321.350258 435.050983 
L 335.212919 450.094632 
L 349.07558 458.304457 
L 362.938241 463.159242 
L 376.800902 473.985765 
L 390.663563 478.697224 
L 404.526224 479.056735 
L 418.388885 484.867632 
L 432.251546 407.693068 
L 446.114207 432.799311 
L 459.976869 438.504722 
L 473.83953 451.963503 
L 487.702191 453.536259 
L 501.564852 457.059098 
L 515.427513 462.166785 
L 529.290174 464.074557 
L 543.152835 470.121362 
" style="fill:none;stroke:#1f77b4;stroke-linecap:square;stroke-width:1.5;"/>
   </g>
   <g id="line2d_36">
    <path clip-path="url(#pa3116e6457)" d="M 57.959697 454.975325 
L 71.822358 482.433452 
L 85.685019 462.913078 
L 99.547681 495.115451 
L 113.410342 508.563644 
L 127.273003 498.353525 
L 141.135664 499.652374 
L 154.998325 507.193047 
L 168.860986 502.373585 
L 182.723647 527.798582 
L 196.586308 525.652275 
L 210.448969 527.185848 
L 224.31163 532.496937 
L 238.174291 529.155132 
L 252.036952 533.897933 
L 265.899613 534.25947 
L 279.762275 532.480524 
L 293.624936 530.796738 
L 307.487597 523.280538 
L 321.350258 543.061384 
L 335.212919 546.904541 
L 349.07558 548.857021 
L 362.938241 548.24148 
L 376.800902 539.238109 
L 390.663563 550.506668 
L 404.526224 554.031848 
L 418.388885 542.282425 
L 432.251546 540.339571 
L 446.114207 548.906992 
L 459.976869 556.875295 
L 473.83953 554.748629 
L 487.702191 547.489823 
L 501.564852 559.884094 
L 515.427513 556.468706 
L 529.290174 557.704354 
L 543.152835 547.254818 
" style="fill:none;stroke:#1f77b4;stroke-dasharray:5.55,2.4;stroke-dashoffset:0;stroke-width:1.5;"/>
   </g>
   <g id="line2d_37">
    <path clip-path="url(#pa3116e6457)" d="M 57.959697 37.654004 
L 71.822358 225.188498 
L 85.685019 268.896681 
L 99.547681 296.333082 
L 113.410342 321.4302 
L 127.273003 336.12247 
L 141.135664 356.47046 
L 154.998325 366.81064 
L 168.860986 376.439639 
L 182.723647 384.847041 
L 196.586308 393.841118 
L 210.448969 401.485202 
L 224.31163 414.715787 
L 238.174291 422.019641 
L 252.036952 423.573246 
L 265.899613 435.234504 
L 279.762275 437.929536 
L 293.624936 444.041591 
L 307.487597 450.053204 
L 321.350258 449.441403 
L 335.212919 448.031974 
L 349.07558 461.241303 
L 362.938241 463.086411 
L 376.800902 467.598199 
L 390.663563 468.020103 
L 404.526224 474.410777 
L 418.388885 479.34505 
L 432.251546 477.053603 
L 446.114207 475.868261 
L 459.976869 479.866845 
L 473.83953 486.649826 
L 487.702191 487.861507 
L 501.564852 490.397373 
L 515.427513 492.870506 
L 529.290174 492.806508 
L 543.152835 495.196252 
" style="fill:none;stroke:#ff7f0e;stroke-linecap:square;stroke-width:1.5;"/>
   </g>
   <g id="line2d_38">
    <path clip-path="url(#pa3116e6457)" d="M 57.959697 462.131492 
L 71.822358 488.978109 
L 85.685019 493.046947 
L 99.547681 498.41285 
L 113.410342 494.611251 
L 127.273003 512.158201 
L 141.135664 514.451513 
L 154.998325 527.076572 
L 168.860986 504.619693 
L 182.723647 525.469256 
L 196.586308 527.111564 
L 210.448969 531.742723 
L 224.31163 528.217769 
L 238.174291 537.459674 
L 252.036952 532.32999 
L 265.899613 540.407238 
L 279.762275 536.427273 
L 293.624936 549.184608 
L 307.487597 527.497754 
L 321.350258 528.344881 
L 335.212919 534.51951 
L 349.07558 534.583277 
L 362.938241 549.138969 
L 376.800902 537.078076 
L 390.663563 541.939478 
L 404.526224 525.914752 
L 418.388885 546.759753 
L 432.251546 526.143159 
L 446.114207 541.817298 
L 459.976869 542.644112 
L 473.83953 542.863667 
L 487.702191 539.415403 
L 501.564852 544.649821 
L 515.427513 541.698136 
L 529.290174 544.981479 
L 543.152835 537.704976 
" style="fill:none;stroke:#ff7f0e;stroke-dasharray:5.55,2.4;stroke-dashoffset:0;stroke-width:1.5;"/>
   </g>
   <g id="patch_3">
    <path d="M 33.70004 585.995598 
L 33.70004 11.5425 
" style="fill:none;stroke:#000000;stroke-linecap:square;stroke-linejoin:miter;stroke-width:0.8;"/>
   </g>
   <g id="patch_4">
    <path d="M 567.412492 585.995598 
L 567.412492 11.5425 
" style="fill:none;stroke:#000000;stroke-linecap:square;stroke-linejoin:miter;stroke-width:0.8;"/>
   </g>
   <g id="patch_5">
    <path d="M 33.70004 585.995598 
L 567.412492 585.995598 
" style="fill:none;stroke:#000000;stroke-linecap:square;stroke-linejoin:miter;stroke-width:0.8;"/>
   </g>
   <g id="patch_6">
    <path d="M 33.70004 11.5425 
L 567.412492 11.5425 
" style="fill:none;stroke:#000000;stroke-linecap:square;stroke-linejoin:miter;stroke-width:0.8;"/>
   </g>
   <g id="legend_1">
    <g id="patch_7">
     <path d="M 247.182804 79.3675 
L 560.412492 79.3675 
Q 562.412492 79.3675 562.412492 77.3675 
L 562.412492 18.5425 
Q 562.412492 16.5425 560.412492 16.5425 
L 247.182804 16.5425 
Q 245.182804 16.5425 245.182804 18.5425 
L 245.182804 77.3675 
Q 245.182804 79.3675 247.182804 79.3675 
z
" style="fill:#ffffff;opacity:0.8;stroke:#cccccc;stroke-linejoin:miter;"/>
    </g>
    <g id="line2d_39">
     <path d="M 249.182804 24.640938 
L 269.182804 24.640938 
" style="fill:none;stroke:#1f77b4;stroke-linecap:square;stroke-width:1.5;"/>
    </g>
    <g id="line2d_40"/>
    <g id="text_18">
     <!-- ev2s_imagenet_progressive_224 loss -->
     <g transform="translate(277.182804 28.140938)scale(0.1 -0.1)">
      <defs>
       <path d="M 56.203125 29.59375 
L 56.203125 25.203125 
L 14.890625 25.203125 
Q 15.484375 15.921875 20.484375 11.0625 
Q 25.484375 6.203125 34.421875 6.203125 
Q 39.59375 6.203125 44.453125 7.46875 
Q 49.3125 8.734375 54.109375 11.28125 
L 54.109375 2.78125 
Q 49.265625 0.734375 44.1875 -0.34375 
Q 39.109375 -1.421875 33.890625 -1.421875 
Q 20.796875 -1.421875 13.15625 6.1875 
Q 5.515625 13.8125 5.515625 26.8125 
Q 5.515625 40.234375 12.765625 48.109375 
Q 20.015625 56 32.328125 56 
Q 43.359375 56 49.78125 48.890625 
Q 56.203125 41.796875 56.203125 29.59375 
z
M 47.21875 32.234375 
Q 47.125 39.59375 43.09375 43.984375 
Q 39.0625 48.390625 32.421875 48.390625 
Q 24.90625 48.390625 20.390625 44.140625 
Q 15.875 39.890625 15.1875 32.171875 
z
" id="DejaVuSans-101"/>
       <path d="M 2.984375 54.6875 
L 12.5 54.6875 
L 29.59375 8.796875 
L 46.6875 54.6875 
L 56.203125 54.6875 
L 35.6875 0 
L 23.484375 0 
z
" id="DejaVuSans-118"/>
       <path d="M 44.28125 53.078125 
L 44.28125 44.578125 
Q 40.484375 46.53125 36.375 47.5 
Q 32.28125 48.484375 27.875 48.484375 
Q 21.1875 48.484375 17.84375 46.4375 
Q 14.5 44.390625 14.5 40.28125 
Q 14.5 37.15625 16.890625 35.375 
Q 19.28125 33.59375 26.515625 31.984375 
L 29.59375 31.296875 
Q 39.15625 29.25 43.1875 25.515625 
Q 47.21875 21.78125 47.21875 15.09375 
Q 47.21875 7.46875 41.1875 3.015625 
Q 35.15625 -1.421875 24.609375 -1.421875 
Q 20.21875 -1.421875 15.453125 -0.5625 
Q 10.6875 0.296875 5.421875 2 
L 5.421875 11.28125 
Q 10.40625 8.6875 15.234375 7.390625 
Q 20.0625 6.109375 24.8125 6.109375 
Q 31.15625 6.109375 34.5625 8.28125 
Q 37.984375 10.453125 37.984375 14.40625 
Q 37.984375 18.0625 35.515625 20.015625 
Q 33.0625 21.96875 24.703125 23.78125 
L 21.578125 24.515625 
Q 13.234375 26.265625 9.515625 29.90625 
Q 5.8125 33.546875 5.8125 39.890625 
Q 5.8125 47.609375 11.28125 51.796875 
Q 16.75 56 26.8125 56 
Q 31.78125 56 36.171875 55.265625 
Q 40.578125 54.546875 44.28125 53.078125 
z
" id="DejaVuSans-115"/>
       <path d="M 50.984375 -16.609375 
L 50.984375 -23.578125 
L -0.984375 -23.578125 
L -0.984375 -16.609375 
z
" id="DejaVuSans-95"/>
       <path d="M 9.421875 54.6875 
L 18.40625 54.6875 
L 18.40625 0 
L 9.421875 0 
z
M 9.421875 75.984375 
L 18.40625 75.984375 
L 18.40625 64.59375 
L 9.421875 64.59375 
z
" id="DejaVuSans-105"/>
       <path d="M 52 44.1875 
Q 55.375 50.25 60.0625 53.125 
Q 64.75 56 71.09375 56 
Q 79.640625 56 84.28125 50.015625 
Q 88.921875 44.046875 88.921875 33.015625 
L 88.921875 0 
L 79.890625 0 
L 79.890625 32.71875 
Q 79.890625 40.578125 77.09375 44.375 
Q 74.3125 48.1875 68.609375 48.1875 
Q 61.625 48.1875 57.5625 43.546875 
Q 53.515625 38.921875 53.515625 30.90625 
L 53.515625 0 
L 44.484375 0 
L 44.484375 32.71875 
Q 44.484375 40.625 41.703125 44.40625 
Q 38.921875 48.1875 33.109375 48.1875 
Q 26.21875 48.1875 22.15625 43.53125 
Q 18.109375 38.875 18.109375 30.90625 
L 18.109375 0 
L 9.078125 0 
L 9.078125 54.6875 
L 18.109375 54.6875 
L 18.109375 46.1875 
Q 21.1875 51.21875 25.484375 53.609375 
Q 29.78125 56 35.6875 56 
Q 41.65625 56 45.828125 52.96875 
Q 50 49.953125 52 44.1875 
z
" id="DejaVuSans-109"/>
       <path d="M 34.28125 27.484375 
Q 23.390625 27.484375 19.1875 25 
Q 14.984375 22.515625 14.984375 16.5 
Q 14.984375 11.71875 18.140625 8.90625 
Q 21.296875 6.109375 26.703125 6.109375 
Q 34.1875 6.109375 38.703125 11.40625 
Q 43.21875 16.703125 43.21875 25.484375 
L 43.21875 27.484375 
z
M 52.203125 31.203125 
L 52.203125 0 
L 43.21875 0 
L 43.21875 8.296875 
Q 40.140625 3.328125 35.546875 0.953125 
Q 30.953125 -1.421875 24.3125 -1.421875 
Q 15.921875 -1.421875 10.953125 3.296875 
Q 6 8.015625 6 15.921875 
Q 6 25.140625 12.171875 29.828125 
Q 18.359375 34.515625 30.609375 34.515625 
L 43.21875 34.515625 
L 43.21875 35.40625 
Q 43.21875 41.609375 39.140625 45 
Q 35.0625 48.390625 27.6875 48.390625 
Q 23 48.390625 18.546875 47.265625 
Q 14.109375 46.140625 10.015625 43.890625 
L 10.015625 52.203125 
Q 14.9375 54.109375 19.578125 55.046875 
Q 24.21875 56 28.609375 56 
Q 40.484375 56 46.34375 49.84375 
Q 52.203125 43.703125 52.203125 31.203125 
z
" id="DejaVuSans-97"/>
       <path d="M 45.40625 27.984375 
Q 45.40625 37.75 41.375 43.109375 
Q 37.359375 48.484375 30.078125 48.484375 
Q 22.859375 48.484375 18.828125 43.109375 
Q 14.796875 37.75 14.796875 27.984375 
Q 14.796875 18.265625 18.828125 12.890625 
Q 22.859375 7.515625 30.078125 7.515625 
Q 37.359375 7.515625 41.375 12.890625 
Q 45.40625 18.265625 45.40625 27.984375 
z
M 54.390625 6.78125 
Q 54.390625 -7.171875 48.1875 -13.984375 
Q 42 -20.796875 29.203125 -20.796875 
Q 24.46875 -20.796875 20.265625 -20.09375 
Q 16.0625 -19.390625 12.109375 -17.921875 
L 12.109375 -9.1875 
Q 16.0625 -11.328125 19.921875 -12.34375 
Q 23.78125 -13.375 27.78125 -13.375 
Q 36.625 -13.375 41.015625 -8.765625 
Q 45.40625 -4.15625 45.40625 5.171875 
L 45.40625 9.625 
Q 42.625 4.78125 38.28125 2.390625 
Q 33.9375 0 27.875 0 
Q 17.828125 0 11.671875 7.65625 
Q 5.515625 15.328125 5.515625 27.984375 
Q 5.515625 40.671875 11.671875 48.328125 
Q 17.828125 56 27.875 56 
Q 33.9375 56 38.28125 53.609375 
Q 42.625 51.21875 45.40625 46.390625 
L 45.40625 54.6875 
L 54.390625 54.6875 
z
" id="DejaVuSans-103"/>
       <path d="M 54.890625 33.015625 
L 54.890625 0 
L 45.90625 0 
L 45.90625 32.71875 
Q 45.90625 40.484375 42.875 44.328125 
Q 39.84375 48.1875 33.796875 48.1875 
Q 26.515625 48.1875 22.3125 43.546875 
Q 18.109375 38.921875 18.109375 30.90625 
L 18.109375 0 
L 9.078125 0 
L 9.078125 54.6875 
L 18.109375 54.6875 
L 18.109375 46.1875 
Q 21.34375 51.125 25.703125 53.5625 
Q 30.078125 56 35.796875 56 
Q 45.21875 56 50.046875 50.171875 
Q 54.890625 44.34375 54.890625 33.015625 
z
" id="DejaVuSans-110"/>
       <path d="M 18.3125 70.21875 
L 18.3125 54.6875 
L 36.8125 54.6875 
L 36.8125 47.703125 
L 18.3125 47.703125 
L 18.3125 18.015625 
Q 18.3125 11.328125 20.140625 9.421875 
Q 21.96875 7.515625 27.59375 7.515625 
L 36.8125 7.515625 
L 36.8125 0 
L 27.59375 0 
Q 17.1875 0 13.234375 3.875 
Q 9.28125 7.765625 9.28125 18.015625 
L 9.28125 47.703125 
L 2.6875 47.703125 
L 2.6875 54.6875 
L 9.28125 54.6875 
L 9.28125 70.21875 
z
" id="DejaVuSans-116"/>
       <path d="M 18.109375 8.203125 
L 18.109375 -20.796875 
L 9.078125 -20.796875 
L 9.078125 54.6875 
L 18.109375 54.6875 
L 18.109375 46.390625 
Q 20.953125 51.265625 25.265625 53.625 
Q 29.59375 56 35.59375 56 
Q 45.5625 56 51.78125 48.09375 
Q 58.015625 40.1875 58.015625 27.296875 
Q 58.015625 14.40625 51.78125 6.484375 
Q 45.5625 -1.421875 35.59375 -1.421875 
Q 29.59375 -1.421875 25.265625 0.953125 
Q 20.953125 3.328125 18.109375 8.203125 
z
M 48.6875 27.296875 
Q 48.6875 37.203125 44.609375 42.84375 
Q 40.53125 48.484375 33.40625 48.484375 
Q 26.265625 48.484375 22.1875 42.84375 
Q 18.109375 37.203125 18.109375 27.296875 
Q 18.109375 17.390625 22.1875 11.75 
Q 26.265625 6.109375 33.40625 6.109375 
Q 40.53125 6.109375 44.609375 11.75 
Q 48.6875 17.390625 48.6875 27.296875 
z
" id="DejaVuSans-112"/>
       <path d="M 41.109375 46.296875 
Q 39.59375 47.171875 37.8125 47.578125 
Q 36.03125 48 33.890625 48 
Q 26.265625 48 22.1875 43.046875 
Q 18.109375 38.09375 18.109375 28.8125 
L 18.109375 0 
L 9.078125 0 
L 9.078125 54.6875 
L 18.109375 54.6875 
L 18.109375 46.1875 
Q 20.953125 51.171875 25.484375 53.578125 
Q 30.03125 56 36.53125 56 
Q 37.453125 56 38.578125 55.875 
Q 39.703125 55.765625 41.0625 55.515625 
z
" id="DejaVuSans-114"/>
       <path d="M 30.609375 48.390625 
Q 23.390625 48.390625 19.1875 42.75 
Q 14.984375 37.109375 14.984375 27.296875 
Q 14.984375 17.484375 19.15625 11.84375 
Q 23.34375 6.203125 30.609375 6.203125 
Q 37.796875 6.203125 41.984375 11.859375 
Q 46.1875 17.53125 46.1875 27.296875 
Q 46.1875 37.015625 41.984375 42.703125 
Q 37.796875 48.390625 30.609375 48.390625 
z
M 30.609375 56 
Q 42.328125 56 49.015625 48.375 
Q 55.71875 40.765625 55.71875 27.296875 
Q 55.71875 13.875 49.015625 6.21875 
Q 42.328125 -1.421875 30.609375 -1.421875 
Q 18.84375 -1.421875 12.171875 6.21875 
Q 5.515625 13.875 5.515625 27.296875 
Q 5.515625 40.765625 12.171875 48.375 
Q 18.84375 56 30.609375 56 
z
" id="DejaVuSans-111"/>
       <path id="DejaVuSans-32"/>
       <path d="M 9.421875 75.984375 
L 18.40625 75.984375 
L 18.40625 0 
L 9.421875 0 
z
" id="DejaVuSans-108"/>
      </defs>
      <use xlink:href="#DejaVuSans-101"/>
      <use x="61.523438" xlink:href="#DejaVuSans-118"/>
      <use x="120.703125" xlink:href="#DejaVuSans-50"/>
      <use x="184.326172" xlink:href="#DejaVuSans-115"/>
      <use x="236.425781" xlink:href="#DejaVuSans-95"/>
      <use x="286.425781" xlink:href="#DejaVuSans-105"/>
      <use x="314.208984" xlink:href="#DejaVuSans-109"/>
      <use x="411.621094" xlink:href="#DejaVuSans-97"/>
      <use x="472.900391" xlink:href="#DejaVuSans-103"/>
      <use x="536.376953" xlink:href="#DejaVuSans-101"/>
      <use x="597.900391" xlink:href="#DejaVuSans-110"/>
      <use x="661.279297" xlink:href="#DejaVuSans-101"/>
      <use x="722.802734" xlink:href="#DejaVuSans-116"/>
      <use x="762.011719" xlink:href="#DejaVuSans-95"/>
      <use x="812.011719" xlink:href="#DejaVuSans-112"/>
      <use x="875.488281" xlink:href="#DejaVuSans-114"/>
      <use x="914.351562" xlink:href="#DejaVuSans-111"/>
      <use x="975.533203" xlink:href="#DejaVuSans-103"/>
      <use x="1039.009766" xlink:href="#DejaVuSans-114"/>
      <use x="1077.873047" xlink:href="#DejaVuSans-101"/>
      <use x="1139.396484" xlink:href="#DejaVuSans-115"/>
      <use x="1191.496094" xlink:href="#DejaVuSans-115"/>
      <use x="1243.595703" xlink:href="#DejaVuSans-105"/>
      <use x="1271.378906" xlink:href="#DejaVuSans-118"/>
      <use x="1330.558594" xlink:href="#DejaVuSans-101"/>
      <use x="1392.082031" xlink:href="#DejaVuSans-95"/>
      <use x="1442.082031" xlink:href="#DejaVuSans-50"/>
      <use x="1505.705078" xlink:href="#DejaVuSans-50"/>
      <use x="1569.328125" xlink:href="#DejaVuSans-52"/>
      <use x="1632.951172" xlink:href="#DejaVuSans-32"/>
      <use x="1664.738281" xlink:href="#DejaVuSans-108"/>
      <use x="1692.521484" xlink:href="#DejaVuSans-111"/>
      <use x="1753.703125" xlink:href="#DejaVuSans-115"/>
      <use x="1805.802734" xlink:href="#DejaVuSans-115"/>
     </g>
    </g>
    <g id="line2d_41">
     <path d="M 249.182804 39.597188 
L 269.182804 39.597188 
" style="fill:none;stroke:#1f77b4;stroke-dasharray:5.55,2.4;stroke-dashoffset:0;stroke-width:1.5;"/>
    </g>
    <g id="line2d_42"/>
    <g id="text_19">
     <!-- ev2s_imagenet_progressive_224 val_loss -->
     <g transform="translate(277.182804 43.097188)scale(0.1 -0.1)">
      <use xlink:href="#DejaVuSans-101"/>
      <use x="61.523438" xlink:href="#DejaVuSans-118"/>
      <use x="120.703125" xlink:href="#DejaVuSans-50"/>
      <use x="184.326172" xlink:href="#DejaVuSans-115"/>
      <use x="236.425781" xlink:href="#DejaVuSans-95"/>
      <use x="286.425781" xlink:href="#DejaVuSans-105"/>
      <use x="314.208984" xlink:href="#DejaVuSans-109"/>
      <use x="411.621094" xlink:href="#DejaVuSans-97"/>
      <use x="472.900391" xlink:href="#DejaVuSans-103"/>
      <use x="536.376953" xlink:href="#DejaVuSans-101"/>
      <use x="597.900391" xlink:href="#DejaVuSans-110"/>
      <use x="661.279297" xlink:href="#DejaVuSans-101"/>
      <use x="722.802734" xlink:href="#DejaVuSans-116"/>
      <use x="762.011719" xlink:href="#DejaVuSans-95"/>
      <use x="812.011719" xlink:href="#DejaVuSans-112"/>
      <use x="875.488281" xlink:href="#DejaVuSans-114"/>
      <use x="914.351562" xlink:href="#DejaVuSans-111"/>
      <use x="975.533203" xlink:href="#DejaVuSans-103"/>
      <use x="1039.009766" xlink:href="#DejaVuSans-114"/>
      <use x="1077.873047" xlink:href="#DejaVuSans-101"/>
      <use x="1139.396484" xlink:href="#DejaVuSans-115"/>
      <use x="1191.496094" xlink:href="#DejaVuSans-115"/>
      <use x="1243.595703" xlink:href="#DejaVuSans-105"/>
      <use x="1271.378906" xlink:href="#DejaVuSans-118"/>
      <use x="1330.558594" xlink:href="#DejaVuSans-101"/>
      <use x="1392.082031" xlink:href="#DejaVuSans-95"/>
      <use x="1442.082031" xlink:href="#DejaVuSans-50"/>
      <use x="1505.705078" xlink:href="#DejaVuSans-50"/>
      <use x="1569.328125" xlink:href="#DejaVuSans-52"/>
      <use x="1632.951172" xlink:href="#DejaVuSans-32"/>
      <use x="1664.738281" xlink:href="#DejaVuSans-118"/>
      <use x="1723.917969" xlink:href="#DejaVuSans-97"/>
      <use x="1785.197266" xlink:href="#DejaVuSans-108"/>
      <use x="1812.980469" xlink:href="#DejaVuSans-95"/>
      <use x="1862.980469" xlink:href="#DejaVuSans-108"/>
      <use x="1890.763672" xlink:href="#DejaVuSans-111"/>
      <use x="1951.945312" xlink:href="#DejaVuSans-115"/>
      <use x="2004.044922" xlink:href="#DejaVuSans-115"/>
     </g>
    </g>
    <g id="line2d_43">
     <path d="M 249.182804 54.553438 
L 269.182804 54.553438 
" style="fill:none;stroke:#ff7f0e;stroke-linecap:square;stroke-width:1.5;"/>
    </g>
    <g id="line2d_44"/>
    <g id="text_20">
     <!-- ev2s_imagenet_magnitude_15_dropout_04_224 loss -->
     <g transform="translate(277.182804 58.053438)scale(0.1 -0.1)">
      <defs>
       <path d="M 8.5 21.578125 
L 8.5 54.6875 
L 17.484375 54.6875 
L 17.484375 21.921875 
Q 17.484375 14.15625 20.5 10.265625 
Q 23.53125 6.390625 29.59375 6.390625 
Q 36.859375 6.390625 41.078125 11.03125 
Q 45.3125 15.671875 45.3125 23.6875 
L 45.3125 54.6875 
L 54.296875 54.6875 
L 54.296875 0 
L 45.3125 0 
L 45.3125 8.40625 
Q 42.046875 3.421875 37.71875 1 
Q 33.40625 -1.421875 27.6875 -1.421875 
Q 18.265625 -1.421875 13.375 4.4375 
Q 8.5 10.296875 8.5 21.578125 
z
M 31.109375 56 
z
" id="DejaVuSans-117"/>
       <path d="M 45.40625 46.390625 
L 45.40625 75.984375 
L 54.390625 75.984375 
L 54.390625 0 
L 45.40625 0 
L 45.40625 8.203125 
Q 42.578125 3.328125 38.25 0.953125 
Q 33.9375 -1.421875 27.875 -1.421875 
Q 17.96875 -1.421875 11.734375 6.484375 
Q 5.515625 14.40625 5.515625 27.296875 
Q 5.515625 40.1875 11.734375 48.09375 
Q 17.96875 56 27.875 56 
Q 33.9375 56 38.25 53.625 
Q 42.578125 51.265625 45.40625 46.390625 
z
M 14.796875 27.296875 
Q 14.796875 17.390625 18.875 11.75 
Q 22.953125 6.109375 30.078125 6.109375 
Q 37.203125 6.109375 41.296875 11.75 
Q 45.40625 17.390625 45.40625 27.296875 
Q 45.40625 37.203125 41.296875 42.84375 
Q 37.203125 48.484375 30.078125 48.484375 
Q 22.953125 48.484375 18.875 42.84375 
Q 14.796875 37.203125 14.796875 27.296875 
z
" id="DejaVuSans-100"/>
      </defs>
      <use xlink:href="#DejaVuSans-101"/>
      <use x="61.523438" xlink:href="#DejaVuSans-118"/>
      <use x="120.703125" xlink:href="#DejaVuSans-50"/>
      <use x="184.326172" xlink:href="#DejaVuSans-115"/>
      <use x="236.425781" xlink:href="#DejaVuSans-95"/>
      <use x="286.425781" xlink:href="#DejaVuSans-105"/>
      <use x="314.208984" xlink:href="#DejaVuSans-109"/>
      <use x="411.621094" xlink:href="#DejaVuSans-97"/>
      <use x="472.900391" xlink:href="#DejaVuSans-103"/>
      <use x="536.376953" xlink:href="#DejaVuSans-101"/>
      <use x="597.900391" xlink:href="#DejaVuSans-110"/>
      <use x="661.279297" xlink:href="#DejaVuSans-101"/>
      <use x="722.802734" xlink:href="#DejaVuSans-116"/>
      <use x="762.011719" xlink:href="#DejaVuSans-95"/>
      <use x="812.011719" xlink:href="#DejaVuSans-109"/>
      <use x="909.423828" xlink:href="#DejaVuSans-97"/>
      <use x="970.703125" xlink:href="#DejaVuSans-103"/>
      <use x="1034.179688" xlink:href="#DejaVuSans-110"/>
      <use x="1097.558594" xlink:href="#DejaVuSans-105"/>
      <use x="1125.341797" xlink:href="#DejaVuSans-116"/>
      <use x="1164.550781" xlink:href="#DejaVuSans-117"/>
      <use x="1227.929688" xlink:href="#DejaVuSans-100"/>
      <use x="1291.40625" xlink:href="#DejaVuSans-101"/>
      <use x="1352.929688" xlink:href="#DejaVuSans-95"/>
      <use x="1402.929688" xlink:href="#DejaVuSans-49"/>
      <use x="1466.552734" xlink:href="#DejaVuSans-53"/>
      <use x="1530.175781" xlink:href="#DejaVuSans-95"/>
      <use x="1580.175781" xlink:href="#DejaVuSans-100"/>
      <use x="1643.652344" xlink:href="#DejaVuSans-114"/>
      <use x="1682.515625" xlink:href="#DejaVuSans-111"/>
      <use x="1743.697266" xlink:href="#DejaVuSans-112"/>
      <use x="1807.173828" xlink:href="#DejaVuSans-111"/>
      <use x="1868.355469" xlink:href="#DejaVuSans-117"/>
      <use x="1931.734375" xlink:href="#DejaVuSans-116"/>
      <use x="1970.943359" xlink:href="#DejaVuSans-95"/>
      <use x="2020.943359" xlink:href="#DejaVuSans-48"/>
      <use x="2084.566406" xlink:href="#DejaVuSans-52"/>
      <use x="2148.189453" xlink:href="#DejaVuSans-95"/>
      <use x="2198.189453" xlink:href="#DejaVuSans-50"/>
      <use x="2261.8125" xlink:href="#DejaVuSans-50"/>
      <use x="2325.435547" xlink:href="#DejaVuSans-52"/>
      <use x="2389.058594" xlink:href="#DejaVuSans-32"/>
      <use x="2420.845703" xlink:href="#DejaVuSans-108"/>
      <use x="2448.628906" xlink:href="#DejaVuSans-111"/>
      <use x="2509.810547" xlink:href="#DejaVuSans-115"/>
      <use x="2561.910156" xlink:href="#DejaVuSans-115"/>
     </g>
    </g>
    <g id="line2d_45">
     <path d="M 249.182804 69.509688 
L 269.182804 69.509688 
" style="fill:none;stroke:#ff7f0e;stroke-dasharray:5.55,2.4;stroke-dashoffset:0;stroke-width:1.5;"/>
    </g>
    <g id="line2d_46"/>
    <g id="text_21">
     <!-- ev2s_imagenet_magnitude_15_dropout_04_224 val_loss -->
     <g transform="translate(277.182804 73.009688)scale(0.1 -0.1)">
      <use xlink:href="#DejaVuSans-101"/>
      <use x="61.523438" xlink:href="#DejaVuSans-118"/>
      <use x="120.703125" xlink:href="#DejaVuSans-50"/>
      <use x="184.326172" xlink:href="#DejaVuSans-115"/>
      <use x="236.425781" xlink:href="#DejaVuSans-95"/>
      <use x="286.425781" xlink:href="#DejaVuSans-105"/>
      <use x="314.208984" xlink:href="#DejaVuSans-109"/>
      <use x="411.621094" xlink:href="#DejaVuSans-97"/>
      <use x="472.900391" xlink:href="#DejaVuSans-103"/>
      <use x="536.376953" xlink:href="#DejaVuSans-101"/>
      <use x="597.900391" xlink:href="#DejaVuSans-110"/>
      <use x="661.279297" xlink:href="#DejaVuSans-101"/>
      <use x="722.802734" xlink:href="#DejaVuSans-116"/>
      <use x="762.011719" xlink:href="#DejaVuSans-95"/>
      <use x="812.011719" xlink:href="#DejaVuSans-109"/>
      <use x="909.423828" xlink:href="#DejaVuSans-97"/>
      <use x="970.703125" xlink:href="#DejaVuSans-103"/>
      <use x="1034.179688" xlink:href="#DejaVuSans-110"/>
      <use x="1097.558594" xlink:href="#DejaVuSans-105"/>
      <use x="1125.341797" xlink:href="#DejaVuSans-116"/>
      <use x="1164.550781" xlink:href="#DejaVuSans-117"/>
      <use x="1227.929688" xlink:href="#DejaVuSans-100"/>
      <use x="1291.40625" xlink:href="#DejaVuSans-101"/>
      <use x="1352.929688" xlink:href="#DejaVuSans-95"/>
      <use x="1402.929688" xlink:href="#DejaVuSans-49"/>
      <use x="1466.552734" xlink:href="#DejaVuSans-53"/>
      <use x="1530.175781" xlink:href="#DejaVuSans-95"/>
      <use x="1580.175781" xlink:href="#DejaVuSans-100"/>
      <use x="1643.652344" xlink:href="#DejaVuSans-114"/>
      <use x="1682.515625" xlink:href="#DejaVuSans-111"/>
      <use x="1743.697266" xlink:href="#DejaVuSans-112"/>
      <use x="1807.173828" xlink:href="#DejaVuSans-111"/>
      <use x="1868.355469" xlink:href="#DejaVuSans-117"/>
      <use x="1931.734375" xlink:href="#DejaVuSans-116"/>
      <use x="1970.943359" xlink:href="#DejaVuSans-95"/>
      <use x="2020.943359" xlink:href="#DejaVuSans-48"/>
      <use x="2084.566406" xlink:href="#DejaVuSans-52"/>
      <use x="2148.189453" xlink:href="#DejaVuSans-95"/>
      <use x="2198.189453" xlink:href="#DejaVuSans-50"/>
      <use x="2261.8125" xlink:href="#DejaVuSans-50"/>
      <use x="2325.435547" xlink:href="#DejaVuSans-52"/>
      <use x="2389.058594" xlink:href="#DejaVuSans-32"/>
      <use x="2420.845703" xlink:href="#DejaVuSans-118"/>
      <use x="2480.025391" xlink:href="#DejaVuSans-97"/>
      <use x="2541.304688" xlink:href="#DejaVuSans-108"/>
      <use x="2569.087891" xlink:href="#DejaVuSans-95"/>
      <use x="2619.087891" xlink:href="#DejaVuSans-108"/>
      <use x="2646.871094" xlink:href="#DejaVuSans-111"/>
      <use x="2708.052734" xlink:href="#DejaVuSans-115"/>
      <use x="2760.152344" xlink:href="#DejaVuSans-115"/>
     </g>
    </g>
   </g>
  </g>
  <g id="axes_2">
   <g id="patch_8">
    <path d="M 607.487549 585.995598 
L 1141.2 585.995598 
L 1141.2 11.5425 
L 607.487549 11.5425 
z
" style="fill:#ffffff;"/>
   </g>
   <g id="matplotlib.axis_3">
    <g id="xtick_9">
     <g id="line2d_47">
      <path clip-path="url(#pcb62309600)" d="M 631.747205 585.995598 
L 631.747205 11.5425 
" style="fill:none;stroke:#b0b0b0;stroke-linecap:square;stroke-width:0.8;"/>
     </g>
     <g id="line2d_48">
      <g>
       <use style="stroke:#000000;stroke-width:0.8;" x="631.747205" xlink:href="#m9f8d7bedde" y="585.995598"/>
      </g>
     </g>
     <g id="text_22">
      <!-- 0 -->
      <g transform="translate(628.565955 600.594036)scale(0.1 -0.1)">
       <use xlink:href="#DejaVuSans-48"/>
      </g>
     </g>
    </g>
    <g id="xtick_10">
     <g id="line2d_49">
      <path clip-path="url(#pcb62309600)" d="M 701.060511 585.995598 
L 701.060511 11.5425 
" style="fill:none;stroke:#b0b0b0;stroke-linecap:square;stroke-width:0.8;"/>
     </g>
     <g id="line2d_50">
      <g>
       <use style="stroke:#000000;stroke-width:0.8;" x="701.060511" xlink:href="#m9f8d7bedde" y="585.995598"/>
      </g>
     </g>
     <g id="text_23">
      <!-- 5 -->
      <g transform="translate(697.879261 600.594036)scale(0.1 -0.1)">
       <use xlink:href="#DejaVuSans-53"/>
      </g>
     </g>
    </g>
    <g id="xtick_11">
     <g id="line2d_51">
      <path clip-path="url(#pcb62309600)" d="M 770.373816 585.995598 
L 770.373816 11.5425 
" style="fill:none;stroke:#b0b0b0;stroke-linecap:square;stroke-width:0.8;"/>
     </g>
     <g id="line2d_52">
      <g>
       <use style="stroke:#000000;stroke-width:0.8;" x="770.373816" xlink:href="#m9f8d7bedde" y="585.995598"/>
      </g>
     </g>
     <g id="text_24">
      <!-- 10 -->
      <g transform="translate(764.011316 600.594036)scale(0.1 -0.1)">
       <use xlink:href="#DejaVuSans-49"/>
       <use x="63.623047" xlink:href="#DejaVuSans-48"/>
      </g>
     </g>
    </g>
    <g id="xtick_12">
     <g id="line2d_53">
      <path clip-path="url(#pcb62309600)" d="M 839.687122 585.995598 
L 839.687122 11.5425 
" style="fill:none;stroke:#b0b0b0;stroke-linecap:square;stroke-width:0.8;"/>
     </g>
     <g id="line2d_54">
      <g>
       <use style="stroke:#000000;stroke-width:0.8;" x="839.687122" xlink:href="#m9f8d7bedde" y="585.995598"/>
      </g>
     </g>
     <g id="text_25">
      <!-- 15 -->
      <g transform="translate(833.324622 600.594036)scale(0.1 -0.1)">
       <use xlink:href="#DejaVuSans-49"/>
       <use x="63.623047" xlink:href="#DejaVuSans-53"/>
      </g>
     </g>
    </g>
    <g id="xtick_13">
     <g id="line2d_55">
      <path clip-path="url(#pcb62309600)" d="M 909.000427 585.995598 
L 909.000427 11.5425 
" style="fill:none;stroke:#b0b0b0;stroke-linecap:square;stroke-width:0.8;"/>
     </g>
     <g id="line2d_56">
      <g>
       <use style="stroke:#000000;stroke-width:0.8;" x="909.000427" xlink:href="#m9f8d7bedde" y="585.995598"/>
      </g>
     </g>
     <g id="text_26">
      <!-- 20 -->
      <g transform="translate(902.637927 600.594036)scale(0.1 -0.1)">
       <use xlink:href="#DejaVuSans-50"/>
       <use x="63.623047" xlink:href="#DejaVuSans-48"/>
      </g>
     </g>
    </g>
    <g id="xtick_14">
     <g id="line2d_57">
      <path clip-path="url(#pcb62309600)" d="M 978.313732 585.995598 
L 978.313732 11.5425 
" style="fill:none;stroke:#b0b0b0;stroke-linecap:square;stroke-width:0.8;"/>
     </g>
     <g id="line2d_58">
      <g>
       <use style="stroke:#000000;stroke-width:0.8;" x="978.313732" xlink:href="#m9f8d7bedde" y="585.995598"/>
      </g>
     </g>
     <g id="text_27">
      <!-- 25 -->
      <g transform="translate(971.951232 600.594036)scale(0.1 -0.1)">
       <use xlink:href="#DejaVuSans-50"/>
       <use x="63.623047" xlink:href="#DejaVuSans-53"/>
      </g>
     </g>
    </g>
    <g id="xtick_15">
     <g id="line2d_59">
      <path clip-path="url(#pcb62309600)" d="M 1047.627038 585.995598 
L 1047.627038 11.5425 
" style="fill:none;stroke:#b0b0b0;stroke-linecap:square;stroke-width:0.8;"/>
     </g>
     <g id="line2d_60">
      <g>
       <use style="stroke:#000000;stroke-width:0.8;" x="1047.627038" xlink:href="#m9f8d7bedde" y="585.995598"/>
      </g>
     </g>
     <g id="text_28">
      <!-- 30 -->
      <g transform="translate(1041.264538 600.594036)scale(0.1 -0.1)">
       <use xlink:href="#DejaVuSans-51"/>
       <use x="63.623047" xlink:href="#DejaVuSans-48"/>
      </g>
     </g>
    </g>
    <g id="xtick_16">
     <g id="line2d_61">
      <path clip-path="url(#pcb62309600)" d="M 1116.940343 585.995598 
L 1116.940343 11.5425 
" style="fill:none;stroke:#b0b0b0;stroke-linecap:square;stroke-width:0.8;"/>
     </g>
     <g id="line2d_62">
      <g>
       <use style="stroke:#000000;stroke-width:0.8;" x="1116.940343" xlink:href="#m9f8d7bedde" y="585.995598"/>
      </g>
     </g>
     <g id="text_29">
      <!-- 35 -->
      <g transform="translate(1110.577843 600.594036)scale(0.1 -0.1)">
       <use xlink:href="#DejaVuSans-51"/>
       <use x="63.623047" xlink:href="#DejaVuSans-53"/>
      </g>
     </g>
    </g>
   </g>
   <g id="matplotlib.axis_4">
    <g id="ytick_10">
     <g id="line2d_63">
      <path clip-path="url(#pcb62309600)" d="M 607.487549 553.436764 
L 1141.2 553.436764 
" style="fill:none;stroke:#b0b0b0;stroke-linecap:square;stroke-width:0.8;"/>
     </g>
     <g id="line2d_64">
      <g>
       <use style="stroke:#000000;stroke-width:0.8;" x="607.487549" xlink:href="#m96585be83d" y="553.436764"/>
      </g>
     </g>
     <g id="text_30">
      <!-- 0.70 -->
      <g transform="translate(578.221924 557.235982)scale(0.1 -0.1)">
       <use xlink:href="#DejaVuSans-48"/>
       <use x="63.623047" xlink:href="#DejaVuSans-46"/>
       <use x="95.410156" xlink:href="#DejaVuSans-55"/>
       <use x="159.033203" xlink:href="#DejaVuSans-48"/>
      </g>
     </g>
    </g>
    <g id="ytick_11">
     <g id="line2d_65">
      <path clip-path="url(#pcb62309600)" d="M 607.487549 455.75063 
L 1141.2 455.75063 
" style="fill:none;stroke:#b0b0b0;stroke-linecap:square;stroke-width:0.8;"/>
     </g>
     <g id="line2d_66">
      <g>
       <use style="stroke:#000000;stroke-width:0.8;" x="607.487549" xlink:href="#m96585be83d" y="455.75063"/>
      </g>
     </g>
     <g id="text_31">
      <!-- 0.75 -->
      <g transform="translate(578.221924 459.549849)scale(0.1 -0.1)">
       <use xlink:href="#DejaVuSans-48"/>
       <use x="63.623047" xlink:href="#DejaVuSans-46"/>
       <use x="95.410156" xlink:href="#DejaVuSans-55"/>
       <use x="159.033203" xlink:href="#DejaVuSans-53"/>
      </g>
     </g>
    </g>
    <g id="ytick_12">
     <g id="line2d_67">
      <path clip-path="url(#pcb62309600)" d="M 607.487549 358.064497 
L 1141.2 358.064497 
" style="fill:none;stroke:#b0b0b0;stroke-linecap:square;stroke-width:0.8;"/>
     </g>
     <g id="line2d_68">
      <g>
       <use style="stroke:#000000;stroke-width:0.8;" x="607.487549" xlink:href="#m96585be83d" y="358.064497"/>
      </g>
     </g>
     <g id="text_32">
      <!-- 0.80 -->
      <g transform="translate(578.221924 361.863715)scale(0.1 -0.1)">
       <use xlink:href="#DejaVuSans-48"/>
       <use x="63.623047" xlink:href="#DejaVuSans-46"/>
       <use x="95.410156" xlink:href="#DejaVuSans-56"/>
       <use x="159.033203" xlink:href="#DejaVuSans-48"/>
      </g>
     </g>
    </g>
    <g id="ytick_13">
     <g id="line2d_69">
      <path clip-path="url(#pcb62309600)" d="M 607.487549 260.378363 
L 1141.2 260.378363 
" style="fill:none;stroke:#b0b0b0;stroke-linecap:square;stroke-width:0.8;"/>
     </g>
     <g id="line2d_70">
      <g>
       <use style="stroke:#000000;stroke-width:0.8;" x="607.487549" xlink:href="#m96585be83d" y="260.378363"/>
      </g>
     </g>
     <g id="text_33">
      <!-- 0.85 -->
      <g transform="translate(578.221924 264.177582)scale(0.1 -0.1)">
       <use xlink:href="#DejaVuSans-48"/>
       <use x="63.623047" xlink:href="#DejaVuSans-46"/>
       <use x="95.410156" xlink:href="#DejaVuSans-56"/>
       <use x="159.033203" xlink:href="#DejaVuSans-53"/>
      </g>
     </g>
    </g>
    <g id="ytick_14">
     <g id="line2d_71">
      <path clip-path="url(#pcb62309600)" d="M 607.487549 162.692229 
L 1141.2 162.692229 
" style="fill:none;stroke:#b0b0b0;stroke-linecap:square;stroke-width:0.8;"/>
     </g>
     <g id="line2d_72">
      <g>
       <use style="stroke:#000000;stroke-width:0.8;" x="607.487549" xlink:href="#m96585be83d" y="162.692229"/>
      </g>
     </g>
     <g id="text_34">
      <!-- 0.90 -->
      <g transform="translate(578.221924 166.491448)scale(0.1 -0.1)">
       <use xlink:href="#DejaVuSans-48"/>
       <use x="63.623047" xlink:href="#DejaVuSans-46"/>
       <use x="95.410156" xlink:href="#DejaVuSans-57"/>
       <use x="159.033203" xlink:href="#DejaVuSans-48"/>
      </g>
     </g>
    </g>
    <g id="ytick_15">
     <g id="line2d_73">
      <path clip-path="url(#pcb62309600)" d="M 607.487549 65.006096 
L 1141.2 65.006096 
" style="fill:none;stroke:#b0b0b0;stroke-linecap:square;stroke-width:0.8;"/>
     </g>
     <g id="line2d_74">
      <g>
       <use style="stroke:#000000;stroke-width:0.8;" x="607.487549" xlink:href="#m96585be83d" y="65.006096"/>
      </g>
     </g>
     <g id="text_35">
      <!-- 0.95 -->
      <g transform="translate(578.221924 68.805315)scale(0.1 -0.1)">
       <use xlink:href="#DejaVuSans-48"/>
       <use x="63.623047" xlink:href="#DejaVuSans-46"/>
       <use x="95.410156" xlink:href="#DejaVuSans-57"/>
       <use x="159.033203" xlink:href="#DejaVuSans-53"/>
      </g>
     </g>
    </g>
   </g>
   <g id="line2d_75">
    <path clip-path="url(#pcb62309600)" d="M 631.747205 382.954931 
L 645.609867 248.695142 
L 659.472528 215.169264 
L 673.335189 192.662324 
L 687.19785 169.84283 
L 701.060511 163.00483 
L 714.923172 174.531844 
L 728.785833 132.25328 
L 742.648494 127.212584 
L 756.511155 196.530708 
L 770.373816 164.841378 
L 784.236477 144.639817 
L 798.099138 133.855295 
L 811.961799 132.526706 
L 825.824461 128.072225 
L 839.687122 115.568421 
L 853.549783 107.597237 
L 867.412444 108.925826 
L 881.275105 207.549646 
L 895.137766 170.819737 
L 909.000427 157.925124 
L 922.863088 149.367842 
L 936.725749 140.224463 
L 950.58841 128.423907 
L 964.451071 128.150363 
L 978.313732 130.143189 
L 992.176393 122.484559 
L 1006.039055 198.523533 
L 1019.901716 171.601239 
L 1033.764377 167.381173 
L 1047.627038 155.541606 
L 1061.489699 153.705058 
L 1075.35236 148.781745 
L 1089.215021 144.249124 
L 1103.077682 142.920536 
L 1116.940343 137.919084 
" style="fill:none;stroke:#1f77b4;stroke-linecap:square;stroke-width:1.5;"/>
   </g>
   <g id="line2d_76">
    <path clip-path="url(#pcb62309600)" d="M 631.747205 141.787352 
L 645.609867 118.147344 
L 659.472528 119.124251 
L 673.335189 104.471345 
L 687.19785 92.553638 
L 701.060511 95.484126 
L 714.923172 94.116527 
L 728.785833 86.497025 
L 742.648494 83.761825 
L 756.511155 69.499612 
L 770.373816 73.016314 
L 784.236477 70.281114 
L 798.099138 59.926412 
L 811.961799 67.936724 
L 825.824461 57.191213 
L 839.687122 60.51251 
L 853.549783 64.61531 
L 867.412444 60.903319 
L 881.275105 63.833807 
L 895.137766 51.916101 
L 909.000427 46.836511 
L 922.863088 44.492004 
L 936.725749 45.664199 
L 950.58841 52.893008 
L 964.451071 42.733711 
L 978.313732 42.147497 
L 992.176393 43.319809 
L 1006.039055 56.40971 
L 1019.901716 47.422609 
L 1033.764377 41.561399 
L 1047.627038 41.561399 
L 1061.489699 44.687409 
L 1075.35236 37.654004 
L 1089.215021 39.412297 
L 1103.077682 42.733711 
L 1116.940343 41.365995 
" style="fill:none;stroke:#1f77b4;stroke-dasharray:5.55,2.4;stroke-dashoffset:0;stroke-width:1.5;"/>
   </g>
   <g id="line2d_77">
    <path clip-path="url(#pcb62309600)" d="M 631.747205 559.884094 
L 645.609867 379.125675 
L 659.472528 335.518522 
L 673.335189 308.713494 
L 687.19785 282.76799 
L 701.060511 271.436382 
L 714.923172 248.265322 
L 728.785833 234.550195 
L 742.648494 230.173852 
L 756.511155 221.655582 
L 770.373816 210.831932 
L 784.236477 203.485974 
L 798.099138 192.076227 
L 811.961799 184.144054 
L 825.824461 179.103475 
L 839.687122 169.452137 
L 853.549783 165.779158 
L 867.412444 161.559092 
L 881.275105 155.580733 
L 895.137766 154.48656 
L 909.000427 156.752928 
L 922.863088 142.139033 
L 936.725749 144.05372 
L 950.58841 138.270649 
L 964.451071 137.879956 
L 978.313732 131.237245 
L 992.176393 126.001261 
L 1006.039055 130.260455 
L 1019.901716 131.628055 
L 1033.764377 123.735009 
L 1047.627038 118.733441 
L 1061.489699 117.092298 
L 1075.35236 116.037369 
L 1089.215021 114.122683 
L 1103.077682 112.559678 
L 1116.940343 111.661026 
" style="fill:none;stroke:#ff7f0e;stroke-linecap:square;stroke-width:1.5;"/>
   </g>
   <g id="line2d_78">
    <path clip-path="url(#pcb62309600)" d="M 631.747205 139.052152 
L 645.609867 119.710348 
L 659.472528 106.229637 
L 673.335189 96.851726 
L 687.19785 100.368428 
L 701.060511 90.209131 
L 714.923172 85.910927 
L 728.785833 72.821026 
L 742.648494 82.980323 
L 756.511155 74.774723 
L 770.373816 70.085826 
L 784.236477 64.61531 
L 798.099138 80.049718 
L 811.961799 62.270919 
L 825.824461 64.029212 
L 839.687122 60.51251 
L 853.549783 67.741319 
L 867.412444 49.376306 
L 881.275105 65.201524 
L 895.137766 58.949505 
L 909.000427 56.019017 
L 922.863088 55.628208 
L 936.725749 51.330004 
L 950.58841 51.916101 
L 964.451071 50.743906 
L 978.313732 58.363408 
L 992.176393 48.204111 
L 1006.039055 56.214306 
L 1019.901716 51.916101 
L 1033.764377 48.985613 
L 1047.627038 45.468911 
L 1061.489699 43.905906 
L 1075.35236 46.250413 
L 1089.215021 51.330004 
L 1103.077682 45.468911 
L 1116.940343 48.008706 
" style="fill:none;stroke:#ff7f0e;stroke-dasharray:5.55,2.4;stroke-dashoffset:0;stroke-width:1.5;"/>
   </g>
   <g id="patch_9">
    <path d="M 607.487549 585.995598 
L 607.487549 11.5425 
" style="fill:none;stroke:#000000;stroke-linecap:square;stroke-linejoin:miter;stroke-width:0.8;"/>
   </g>
   <g id="patch_10">
    <path d="M 1141.2 585.995598 
L 1141.2 11.5425 
" style="fill:none;stroke:#000000;stroke-linecap:square;stroke-linejoin:miter;stroke-width:0.8;"/>
   </g>
   <g id="patch_11">
    <path d="M 607.487549 585.995598 
L 1141.2 585.995598 
" style="fill:none;stroke:#000000;stroke-linecap:square;stroke-linejoin:miter;stroke-width:0.8;"/>
   </g>
   <g id="patch_12">
    <path d="M 607.487549 11.5425 
L 1141.2 11.5425 
" style="fill:none;stroke:#000000;stroke-linecap:square;stroke-linejoin:miter;stroke-width:0.8;"/>
   </g>
   <g id="legend_2">
    <g id="patch_13">
     <path d="M 795.167187 580.995598 
L 1134.2 580.995598 
Q 1136.2 580.995598 1136.2 578.995598 
L 1136.2 520.170598 
Q 1136.2 518.170598 1134.2 518.170598 
L 795.167187 518.170598 
Q 793.167187 518.170598 793.167187 520.170598 
L 793.167187 578.995598 
Q 793.167187 580.995598 795.167187 580.995598 
z
" style="fill:#ffffff;opacity:0.8;stroke:#cccccc;stroke-linejoin:miter;"/>
    </g>
    <g id="line2d_79">
     <path d="M 797.167187 526.269036 
L 817.167187 526.269036 
" style="fill:none;stroke:#1f77b4;stroke-linecap:square;stroke-width:1.5;"/>
    </g>
    <g id="line2d_80"/>
    <g id="text_36">
     <!-- ev2s_imagenet_progressive_224 accuracy -->
     <g transform="translate(825.167187 529.769036)scale(0.1 -0.1)">
      <defs>
       <path d="M 48.78125 52.59375 
L 48.78125 44.1875 
Q 44.96875 46.296875 41.140625 47.34375 
Q 37.3125 48.390625 33.40625 48.390625 
Q 24.65625 48.390625 19.8125 42.84375 
Q 14.984375 37.3125 14.984375 27.296875 
Q 14.984375 17.28125 19.8125 11.734375 
Q 24.65625 6.203125 33.40625 6.203125 
Q 37.3125 6.203125 41.140625 7.25 
Q 44.96875 8.296875 48.78125 10.40625 
L 48.78125 2.09375 
Q 45.015625 0.34375 40.984375 -0.53125 
Q 36.96875 -1.421875 32.421875 -1.421875 
Q 20.0625 -1.421875 12.78125 6.34375 
Q 5.515625 14.109375 5.515625 27.296875 
Q 5.515625 40.671875 12.859375 48.328125 
Q 20.21875 56 33.015625 56 
Q 37.15625 56 41.109375 55.140625 
Q 45.0625 54.296875 48.78125 52.59375 
z
" id="DejaVuSans-99"/>
       <path d="M 32.171875 -5.078125 
Q 28.375 -14.84375 24.75 -17.8125 
Q 21.140625 -20.796875 15.09375 -20.796875 
L 7.90625 -20.796875 
L 7.90625 -13.28125 
L 13.1875 -13.28125 
Q 16.890625 -13.28125 18.9375 -11.515625 
Q 21 -9.765625 23.484375 -3.21875 
L 25.09375 0.875 
L 2.984375 54.6875 
L 12.5 54.6875 
L 29.59375 11.921875 
L 46.6875 54.6875 
L 56.203125 54.6875 
z
" id="DejaVuSans-121"/>
      </defs>
      <use xlink:href="#DejaVuSans-101"/>
      <use x="61.523438" xlink:href="#DejaVuSans-118"/>
      <use x="120.703125" xlink:href="#DejaVuSans-50"/>
      <use x="184.326172" xlink:href="#DejaVuSans-115"/>
      <use x="236.425781" xlink:href="#DejaVuSans-95"/>
      <use x="286.425781" xlink:href="#DejaVuSans-105"/>
      <use x="314.208984" xlink:href="#DejaVuSans-109"/>
      <use x="411.621094" xlink:href="#DejaVuSans-97"/>
      <use x="472.900391" xlink:href="#DejaVuSans-103"/>
      <use x="536.376953" xlink:href="#DejaVuSans-101"/>
      <use x="597.900391" xlink:href="#DejaVuSans-110"/>
      <use x="661.279297" xlink:href="#DejaVuSans-101"/>
      <use x="722.802734" xlink:href="#DejaVuSans-116"/>
      <use x="762.011719" xlink:href="#DejaVuSans-95"/>
      <use x="812.011719" xlink:href="#DejaVuSans-112"/>
      <use x="875.488281" xlink:href="#DejaVuSans-114"/>
      <use x="914.351562" xlink:href="#DejaVuSans-111"/>
      <use x="975.533203" xlink:href="#DejaVuSans-103"/>
      <use x="1039.009766" xlink:href="#DejaVuSans-114"/>
      <use x="1077.873047" xlink:href="#DejaVuSans-101"/>
      <use x="1139.396484" xlink:href="#DejaVuSans-115"/>
      <use x="1191.496094" xlink:href="#DejaVuSans-115"/>
      <use x="1243.595703" xlink:href="#DejaVuSans-105"/>
      <use x="1271.378906" xlink:href="#DejaVuSans-118"/>
      <use x="1330.558594" xlink:href="#DejaVuSans-101"/>
      <use x="1392.082031" xlink:href="#DejaVuSans-95"/>
      <use x="1442.082031" xlink:href="#DejaVuSans-50"/>
      <use x="1505.705078" xlink:href="#DejaVuSans-50"/>
      <use x="1569.328125" xlink:href="#DejaVuSans-52"/>
      <use x="1632.951172" xlink:href="#DejaVuSans-32"/>
      <use x="1664.738281" xlink:href="#DejaVuSans-97"/>
      <use x="1726.017578" xlink:href="#DejaVuSans-99"/>
      <use x="1780.998047" xlink:href="#DejaVuSans-99"/>
      <use x="1835.978516" xlink:href="#DejaVuSans-117"/>
      <use x="1899.357422" xlink:href="#DejaVuSans-114"/>
      <use x="1940.470703" xlink:href="#DejaVuSans-97"/>
      <use x="2001.75" xlink:href="#DejaVuSans-99"/>
      <use x="2056.730469" xlink:href="#DejaVuSans-121"/>
     </g>
    </g>
    <g id="line2d_81">
     <path d="M 797.167187 541.225286 
L 817.167187 541.225286 
" style="fill:none;stroke:#1f77b4;stroke-dasharray:5.55,2.4;stroke-dashoffset:0;stroke-width:1.5;"/>
    </g>
    <g id="line2d_82"/>
    <g id="text_37">
     <!-- ev2s_imagenet_progressive_224 val_accuracy -->
     <g transform="translate(825.167187 544.725286)scale(0.1 -0.1)">
      <use xlink:href="#DejaVuSans-101"/>
      <use x="61.523438" xlink:href="#DejaVuSans-118"/>
      <use x="120.703125" xlink:href="#DejaVuSans-50"/>
      <use x="184.326172" xlink:href="#DejaVuSans-115"/>
      <use x="236.425781" xlink:href="#DejaVuSans-95"/>
      <use x="286.425781" xlink:href="#DejaVuSans-105"/>
      <use x="314.208984" xlink:href="#DejaVuSans-109"/>
      <use x="411.621094" xlink:href="#DejaVuSans-97"/>
      <use x="472.900391" xlink:href="#DejaVuSans-103"/>
      <use x="536.376953" xlink:href="#DejaVuSans-101"/>
      <use x="597.900391" xlink:href="#DejaVuSans-110"/>
      <use x="661.279297" xlink:href="#DejaVuSans-101"/>
      <use x="722.802734" xlink:href="#DejaVuSans-116"/>
      <use x="762.011719" xlink:href="#DejaVuSans-95"/>
      <use x="812.011719" xlink:href="#DejaVuSans-112"/>
      <use x="875.488281" xlink:href="#DejaVuSans-114"/>
      <use x="914.351562" xlink:href="#DejaVuSans-111"/>
      <use x="975.533203" xlink:href="#DejaVuSans-103"/>
      <use x="1039.009766" xlink:href="#DejaVuSans-114"/>
      <use x="1077.873047" xlink:href="#DejaVuSans-101"/>
      <use x="1139.396484" xlink:href="#DejaVuSans-115"/>
      <use x="1191.496094" xlink:href="#DejaVuSans-115"/>
      <use x="1243.595703" xlink:href="#DejaVuSans-105"/>
      <use x="1271.378906" xlink:href="#DejaVuSans-118"/>
      <use x="1330.558594" xlink:href="#DejaVuSans-101"/>
      <use x="1392.082031" xlink:href="#DejaVuSans-95"/>
      <use x="1442.082031" xlink:href="#DejaVuSans-50"/>
      <use x="1505.705078" xlink:href="#DejaVuSans-50"/>
      <use x="1569.328125" xlink:href="#DejaVuSans-52"/>
      <use x="1632.951172" xlink:href="#DejaVuSans-32"/>
      <use x="1664.738281" xlink:href="#DejaVuSans-118"/>
      <use x="1723.917969" xlink:href="#DejaVuSans-97"/>
      <use x="1785.197266" xlink:href="#DejaVuSans-108"/>
      <use x="1812.980469" xlink:href="#DejaVuSans-95"/>
      <use x="1862.980469" xlink:href="#DejaVuSans-97"/>
      <use x="1924.259766" xlink:href="#DejaVuSans-99"/>
      <use x="1979.240234" xlink:href="#DejaVuSans-99"/>
      <use x="2034.220703" xlink:href="#DejaVuSans-117"/>
      <use x="2097.599609" xlink:href="#DejaVuSans-114"/>
      <use x="2138.712891" xlink:href="#DejaVuSans-97"/>
      <use x="2199.992188" xlink:href="#DejaVuSans-99"/>
      <use x="2254.972656" xlink:href="#DejaVuSans-121"/>
     </g>
    </g>
    <g id="line2d_83">
     <path d="M 797.167187 556.181536 
L 817.167187 556.181536 
" style="fill:none;stroke:#ff7f0e;stroke-linecap:square;stroke-width:1.5;"/>
    </g>
    <g id="line2d_84"/>
    <g id="text_38">
     <!-- ev2s_imagenet_magnitude_15_dropout_04_224 accuracy -->
     <g transform="translate(825.167187 559.681536)scale(0.1 -0.1)">
      <use xlink:href="#DejaVuSans-101"/>
      <use x="61.523438" xlink:href="#DejaVuSans-118"/>
      <use x="120.703125" xlink:href="#DejaVuSans-50"/>
      <use x="184.326172" xlink:href="#DejaVuSans-115"/>
      <use x="236.425781" xlink:href="#DejaVuSans-95"/>
      <use x="286.425781" xlink:href="#DejaVuSans-105"/>
      <use x="314.208984" xlink:href="#DejaVuSans-109"/>
      <use x="411.621094" xlink:href="#DejaVuSans-97"/>
      <use x="472.900391" xlink:href="#DejaVuSans-103"/>
      <use x="536.376953" xlink:href="#DejaVuSans-101"/>
      <use x="597.900391" xlink:href="#DejaVuSans-110"/>
      <use x="661.279297" xlink:href="#DejaVuSans-101"/>
      <use x="722.802734" xlink:href="#DejaVuSans-116"/>
      <use x="762.011719" xlink:href="#DejaVuSans-95"/>
      <use x="812.011719" xlink:href="#DejaVuSans-109"/>
      <use x="909.423828" xlink:href="#DejaVuSans-97"/>
      <use x="970.703125" xlink:href="#DejaVuSans-103"/>
      <use x="1034.179688" xlink:href="#DejaVuSans-110"/>
      <use x="1097.558594" xlink:href="#DejaVuSans-105"/>
      <use x="1125.341797" xlink:href="#DejaVuSans-116"/>
      <use x="1164.550781" xlink:href="#DejaVuSans-117"/>
      <use x="1227.929688" xlink:href="#DejaVuSans-100"/>
      <use x="1291.40625" xlink:href="#DejaVuSans-101"/>
      <use x="1352.929688" xlink:href="#DejaVuSans-95"/>
      <use x="1402.929688" xlink:href="#DejaVuSans-49"/>
      <use x="1466.552734" xlink:href="#DejaVuSans-53"/>
      <use x="1530.175781" xlink:href="#DejaVuSans-95"/>
      <use x="1580.175781" xlink:href="#DejaVuSans-100"/>
      <use x="1643.652344" xlink:href="#DejaVuSans-114"/>
      <use x="1682.515625" xlink:href="#DejaVuSans-111"/>
      <use x="1743.697266" xlink:href="#DejaVuSans-112"/>
      <use x="1807.173828" xlink:href="#DejaVuSans-111"/>
      <use x="1868.355469" xlink:href="#DejaVuSans-117"/>
      <use x="1931.734375" xlink:href="#DejaVuSans-116"/>
      <use x="1970.943359" xlink:href="#DejaVuSans-95"/>
      <use x="2020.943359" xlink:href="#DejaVuSans-48"/>
      <use x="2084.566406" xlink:href="#DejaVuSans-52"/>
      <use x="2148.189453" xlink:href="#DejaVuSans-95"/>
      <use x="2198.189453" xlink:href="#DejaVuSans-50"/>
      <use x="2261.8125" xlink:href="#DejaVuSans-50"/>
      <use x="2325.435547" xlink:href="#DejaVuSans-52"/>
      <use x="2389.058594" xlink:href="#DejaVuSans-32"/>
      <use x="2420.845703" xlink:href="#DejaVuSans-97"/>
      <use x="2482.125" xlink:href="#DejaVuSans-99"/>
      <use x="2537.105469" xlink:href="#DejaVuSans-99"/>
      <use x="2592.085938" xlink:href="#DejaVuSans-117"/>
      <use x="2655.464844" xlink:href="#DejaVuSans-114"/>
      <use x="2696.578125" xlink:href="#DejaVuSans-97"/>
      <use x="2757.857422" xlink:href="#DejaVuSans-99"/>
      <use x="2812.837891" xlink:href="#DejaVuSans-121"/>
     </g>
    </g>
    <g id="line2d_85">
     <path d="M 797.167187 571.137786 
L 817.167187 571.137786 
" style="fill:none;stroke:#ff7f0e;stroke-dasharray:5.55,2.4;stroke-dashoffset:0;stroke-width:1.5;"/>
    </g>
    <g id="line2d_86"/>
    <g id="text_39">
     <!-- ev2s_imagenet_magnitude_15_dropout_04_224 val_accuracy -->
     <g transform="translate(825.167187 574.637786)scale(0.1 -0.1)">
      <use xlink:href="#DejaVuSans-101"/>
      <use x="61.523438" xlink:href="#DejaVuSans-118"/>
      <use x="120.703125" xlink:href="#DejaVuSans-50"/>
      <use x="184.326172" xlink:href="#DejaVuSans-115"/>
      <use x="236.425781" xlink:href="#DejaVuSans-95"/>
      <use x="286.425781" xlink:href="#DejaVuSans-105"/>
      <use x="314.208984" xlink:href="#DejaVuSans-109"/>
      <use x="411.621094" xlink:href="#DejaVuSans-97"/>
      <use x="472.900391" xlink:href="#DejaVuSans-103"/>
      <use x="536.376953" xlink:href="#DejaVuSans-101"/>
      <use x="597.900391" xlink:href="#DejaVuSans-110"/>
      <use x="661.279297" xlink:href="#DejaVuSans-101"/>
      <use x="722.802734" xlink:href="#DejaVuSans-116"/>
      <use x="762.011719" xlink:href="#DejaVuSans-95"/>
      <use x="812.011719" xlink:href="#DejaVuSans-109"/>
      <use x="909.423828" xlink:href="#DejaVuSans-97"/>
      <use x="970.703125" xlink:href="#DejaVuSans-103"/>
      <use x="1034.179688" xlink:href="#DejaVuSans-110"/>
      <use x="1097.558594" xlink:href="#DejaVuSans-105"/>
      <use x="1125.341797" xlink:href="#DejaVuSans-116"/>
      <use x="1164.550781" xlink:href="#DejaVuSans-117"/>
      <use x="1227.929688" xlink:href="#DejaVuSans-100"/>
      <use x="1291.40625" xlink:href="#DejaVuSans-101"/>
      <use x="1352.929688" xlink:href="#DejaVuSans-95"/>
      <use x="1402.929688" xlink:href="#DejaVuSans-49"/>
      <use x="1466.552734" xlink:href="#DejaVuSans-53"/>
      <use x="1530.175781" xlink:href="#DejaVuSans-95"/>
      <use x="1580.175781" xlink:href="#DejaVuSans-100"/>
      <use x="1643.652344" xlink:href="#DejaVuSans-114"/>
      <use x="1682.515625" xlink:href="#DejaVuSans-111"/>
      <use x="1743.697266" xlink:href="#DejaVuSans-112"/>
      <use x="1807.173828" xlink:href="#DejaVuSans-111"/>
      <use x="1868.355469" xlink:href="#DejaVuSans-117"/>
      <use x="1931.734375" xlink:href="#DejaVuSans-116"/>
      <use x="1970.943359" xlink:href="#DejaVuSans-95"/>
      <use x="2020.943359" xlink:href="#DejaVuSans-48"/>
      <use x="2084.566406" xlink:href="#DejaVuSans-52"/>
      <use x="2148.189453" xlink:href="#DejaVuSans-95"/>
      <use x="2198.189453" xlink:href="#DejaVuSans-50"/>
      <use x="2261.8125" xlink:href="#DejaVuSans-50"/>
      <use x="2325.435547" xlink:href="#DejaVuSans-52"/>
      <use x="2389.058594" xlink:href="#DejaVuSans-32"/>
      <use x="2420.845703" xlink:href="#DejaVuSans-118"/>
      <use x="2480.025391" xlink:href="#DejaVuSans-97"/>
      <use x="2541.304688" xlink:href="#DejaVuSans-108"/>
      <use x="2569.087891" xlink:href="#DejaVuSans-95"/>
      <use x="2619.087891" xlink:href="#DejaVuSans-97"/>
      <use x="2680.367188" xlink:href="#DejaVuSans-99"/>
      <use x="2735.347656" xlink:href="#DejaVuSans-99"/>
      <use x="2790.328125" xlink:href="#DejaVuSans-117"/>
      <use x="2853.707031" xlink:href="#DejaVuSans-114"/>
      <use x="2894.820312" xlink:href="#DejaVuSans-97"/>
      <use x="2956.099609" xlink:href="#DejaVuSans-99"/>
      <use x="3011.080078" xlink:href="#DejaVuSans-121"/>
     </g>
    </g>
   </g>
  </g>
 </g>
 <defs>
  <clipPath id="pa3116e6457">
   <rect height="574.453098" width="533.712451" x="33.70004" y="11.5425"/>
  </clipPath>
  <clipPath id="pcb62309600">
   <rect height="574.453098" width="533.712451" x="607.487549" y="11.5425"/>
  </clipPath>
 </defs>
</svg>
